# xmcd CD database file
#
# Track frame offsets:
#	180
#	11362
#	22562
#	35849
#	47380
#	61459
#	73367
#	88449
#	100340
#	114495
#	125406
#	137198
#	149146
#	164601
#
# Disc length: 2375 seconds
#
# Revision: 0
# Processed by: cddbd v1.5.1PL2 Copyright (c) Steve Scherf et al.
# Submitted via: cdripper 1,0,32,406
#
DISCID=ce09450e
DTITLE=Conway Twitty - The Platinun Collection
DYEAR=2004
DGENRE=Country
TTITLE0=It's Only Make Believe
TTITLE1=Hello Darlin'
TTITLE2=Danny Boy
TTITLE3=I See My Angel Cry
TTITLE4=Fifteen Years Ago
TTITLE5=I Can't See Me Without You
TTITLE6=Lost Her Love After Our First Date
TTITLE7=She Needs Someone to Hold Her (When She Cries)
TTITLE8=You've Never Been This Far Before
TTITLE9=As Soon as I Hang Up
TTITLE10=I'm Not Through Loving You Yet 
TTITLE11=(Lying Here With) Linda on My Mind 
TTITLE12=Touch the Hand 
TTITLE13=After All the Good Is Gone 
EXTD=YEAR: 2004
EXTT0=
EXTT1=
EXTT2=
EXTT3=
EXTT4=
EXTT5=
EXTT6=
EXTT7=
EXTT8=
EXTT9=
EXTT10=
EXTT11=
EXTT12=
EXTT13=
PLAYORDER=
